<mxfile host="app.diagrams.net" modified="2023-04-20T01:57:22.098Z" agent="Mozilla/5.0 (Windows NT 10.0; Win64; x64) AppleWebKit/537.36 (KHTML, like Gecko) Chrome/112.0.0.0 Safari/537.36 Edg/112.0.1722.48" version="21.1.8" etag="z-a-xsmWj_rnSWUh4mAo" type="github">
  <diagram name="第 1 页" id="SuSab7Pjs-F6wup46eRl">
    <mxGraphModel>
      <root>
        <mxCell id="0" />
        <mxCell id="1" parent="0" />
      </root>
    </mxGraphModel>
  </diagram>
</mxfile>
